<?xml version="1.0" encoding="utf-8"?>
<!-- Generator: Adobe Illustrator 23.0.3, SVG Export Plug-In . SVG Version: 6.00 Build 0)  -->
<svg version="1.0" id="Layer_1" xmlns="http://www.w3.org/2000/svg" xmlns:xlink="http://www.w3.org/1999/xlink" x="0px" y="0px"
	 viewBox="0 0 751 1652.1" style="enable-background:new 0 0 751 1652.1;" xml:space="preserve">
<circle class="st0" cx="239.2" cy="1444" r="3.6"/>
<circle class="st0" cx="336.3" cy="1444.4" r="3.6"/>
<circle class="st0" cx="203.4" cy="1457.9" r="3.6"/>
<circle class="st0" cx="233.6" cy="1416.5" r="3.6"/>
<circle class="st0" cx="214.5" cy="1432.4" r="3.6"/>
<circle class="st0" cx="160.4" cy="1423.7" r="3.6"/>
<circle class="st0" cx="184.3" cy="1440.4" r="3.6"/>
<circle class="st0" cx="160.4" cy="1453.9" r="3.6"/>
<circle class="st0" cx="211.4" cy="1347.3" r="3.6"/>
<circle class="st0" cx="181.1" cy="1399.8" r="3.6"/>
<circle class="st0" cx="181.1" cy="1367.2" r="3.6"/>
<circle class="st0" cx="275.8" cy="1498.9" r="3.6"/>
<circle class="st0" cx="239.2" cy="1511.2" r="3.6"/>
<circle class="st0" cx="242.8" cy="1618.7" r="3.6"/>
<circle class="st0" cx="254.3" cy="1552.6" r="3.6"/>
<circle class="st0" cx="218.5" cy="1564.1" r="3.6"/>
<circle class="st0" cx="279.4" cy="1552.6" r="3.6"/>
<circle class="st0" cx="283" cy="1587.2" r="3.6"/>
<circle class="st0" cx="239.2" cy="1389.1" r="3.6"/>
<circle class="st0" cx="207.4" cy="1385.5" r="3.6"/>
<circle class="st0" cx="207.4" cy="1407" r="3.6"/>
<circle class="st0" cx="163.6" cy="1403.8" r="3.6"/>
<circle class="st0" cx="396.7" cy="1461.1" r="3.6"/>
<circle class="st0" cx="382.5" cy="1325" r="3.6"/>
<circle class="st0" cx="322.8" cy="1079.1" r="3.6"/>
<circle class="st0" cx="292.5" cy="1239" r="3.6"/>
<circle class="st0" cx="402.4" cy="1246.2" r="3.6"/>
<circle class="st0" cx="220.1" cy="990.7" r="3.6"/>
<circle class="st0" cx="294.1" cy="1126" r="3.6"/>
<circle class="st0" cx="365.7" cy="1016.2" r="3.6"/>
<circle class="st0" cx="243.2" cy="1079.1" r="3.6"/>
<circle class="st0" cx="412.7" cy="1068.7" r="3.6"/>
<circle class="st0" cx="326.8" cy="1012.2" r="3.6"/>
<circle class="st0" cx="464.4" cy="1047.3" r="3.6"/>
<circle class="st0" cx="346.6" cy="961.3" r="3.6"/>
<circle class="st0" cx="254.3" cy="989.2" r="3.6"/>
<circle class="st0" cx="440.6" cy="1009.1" r="3.6"/>
<circle class="st0" cx="339.5" cy="1137.2" r="3.6"/>
<circle class="st0" cx="322.8" cy="1175.4" r="3.6"/>
<circle class="st0" cx="458.9" cy="1208" r="3.6"/>
<circle class="st0" cx="496.3" cy="1106.9" r="3.6"/>
<circle class="st0" cx="254.3" cy="1118.1" r="3.6"/>
<circle class="st0" cx="233.6" cy="1239" r="3.6"/>
<circle class="st0" cx="357.8" cy="1246.2" r="3.6"/>
<circle class="st0" cx="224.1" cy="1175.4" r="3.6"/>
<circle class="st0" cx="405.5" cy="1161.1" r="3.6"/>
<circle class="st0" cx="431.8" cy="1118.9" r="3.6"/>
<circle class="st0" cx="280.6" cy="998.7" r="3.6"/>
<circle class="st0" cx="119" cy="1016.2" r="3.6"/>
<circle class="st0" cx="251.9" cy="1045.7" r="3.6"/>
<circle class="st0" cx="323.6" cy="935.8" r="3.6"/>
<circle class="st0" cx="205" cy="968.5" r="3.6"/>
<circle class="st0" cx="370.5" cy="988.4" r="3.6"/>
<circle class="st0" cx="284.6" cy="931.9" r="3.6"/>
<circle class="st0" cx="304.5" cy="880.9" r="3.6"/>
<circle class="st0" cx="270.2" cy="1048" r="3.6"/>
<circle class="st0" cx="331.5" cy="992.3" r="3.6"/>
<circle class="st0" cx="292.5" cy="988.4" r="3.6"/>
<circle class="st0" cx="312.4" cy="937.4" r="3.6"/>
<circle class="st0" cx="220.1" cy="965.3" r="3.6"/>
<circle class="st0" cx="246.4" cy="974.8" r="3.6"/>
<circle class="st0" cx="217.7" cy="1021.8" r="3.6"/>
<circle class="st0" cx="289.3" cy="912" r="3.6"/>
<circle class="st0" cx="336.3" cy="964.5" r="3.6"/>
<circle class="st0" cx="241.4" cy="917" r="3.6"/>
<circle class="st0" cx="270.2" cy="857" r="3.6"/>
<circle class="st0" cx="302.1" cy="1035.3" r="3.6"/>
<circle class="st0" cx="248.8" cy="1017" r="3.6"/>
<circle class="st0" cx="322" cy="984.4" r="3.6"/>
<circle class="st0" cx="255.9" cy="1021.8" r="3.6"/>
<circle class="st0" cx="298.9" cy="958.9" r="3.6"/>
<circle class="st0" cx="259.9" cy="954.9" r="3.6"/>
<circle class="st0" cx="279.8" cy="904" r="3.6"/>
<circle class="st0" cx="306.9" cy="1015.4" r="3.6"/>
<circle class="st0" cx="267.9" cy="1011.4" r="3.6"/>
<circle class="st0" cx="244.8" cy="999.5" r="3.6"/>
<circle class="st0" cx="287.8" cy="960.5" r="3.6"/>
<circle class="st0" cx="264.7" cy="935" r="3.6"/>
<circle class="st0" cx="311.6" cy="987.6" r="3.6"/>
<circle class="st0" cx="245.6" cy="880.1" r="3.6"/>
<circle class="st0" cx="212.2" cy="908.8" r="3.6"/>
<circle class="st0" cx="398.4" cy="928.7" r="3.6"/>
<circle class="st0" cx="297.3" cy="1056.8" r="3.6"/>
<circle class="st0" cx="280.6" cy="1095" r="3.6"/>
<circle class="st0" cx="212.2" cy="1037.7" r="3.6"/>
<circle class="st0" cx="181.9" cy="1095" r="3.6"/>
<circle class="st0" cx="363.4" cy="1080.7" r="3.6"/>
<circle class="st0" cx="389.6" cy="1038.5" r="3.6"/>
<circle class="st0" cx="229.7" cy="1403.8" r="3.6"/>
<circle class="st0" cx="214.5" cy="1397.4" r="3.6"/>
<circle class="st0" cx="203.4" cy="1437.2" r="3.6"/>
<circle class="st0" cx="275" cy="1327.4" r="3.6"/>
<circle class="st0" cx="316" cy="1362.9" r="3.6"/>
<circle class="st0" cx="236" cy="1323.4" r="3.6"/>
<circle class="st0" cx="373.7" cy="1358.4" r="3.6"/>
<circle class="st0" cx="163.6" cy="1300.3" r="3.6"/>
<circle class="st0" cx="349.8" cy="1320.2" r="3.6"/>
<circle class="st0" cx="248.8" cy="1448.4" r="3.6"/>
<circle class="st0" cx="292.5" cy="1601.2" r="3.6"/>
<circle class="st0" cx="244.8" cy="1578.9" r="3.6"/>
<circle class="st0" cx="405.5" cy="1418.1" r="3.6"/>
<circle class="st0" cx="165.2" cy="1438.8" r="3.6"/>
<circle class="st0" cx="380.8" cy="1507.2" r="3.6"/>
<circle class="st0" cx="341.1" cy="1430" r="3.6"/>
<circle class="st0" cx="189.9" cy="1309.9" r="3.6"/>
<circle class="st0" cx="161.2" cy="1356.8" r="3.6"/>
<circle class="st0" cx="133.4" cy="1349.7" r="3.6"/>
<circle class="st0" cx="279.8" cy="1299.5" r="3.6"/>
<circle class="st0" cx="240.8" cy="1303.5" r="3.6"/>
<circle class="st0" cx="201.8" cy="1299.5" r="3.6"/>
<circle class="st0" cx="155.6" cy="1286" r="3.6"/>
<circle class="st0" cx="211.4" cy="1346.5" r="3.6"/>
<circle class="st0" cx="231.3" cy="1295.6" r="3.6"/>
<circle class="st0" cx="165.2" cy="1333" r="3.6"/>
<circle class="st0" cx="216.1" cy="1326.6" r="3.6"/>
<circle class="st0" cx="177.1" cy="1322.6" r="3.6"/>
<circle class="st0" cx="220.9" cy="1298.7" r="3.6"/>
<circle class="st0" cx="206.6" cy="1368" r="3.6"/>
<circle class="st0" cx="189.9" cy="1406.2" r="3.6"/>
<circle class="st0" cx="283" cy="1403" r="3.6"/>
<circle class="st0" cx="298.9" cy="1349.7" r="3.6"/>
<circle class="st0" cx="236" cy="563.4" r="3.6"/>
<circle class="st0" cx="205.8" cy="723.3" r="3.6"/>
<circle class="st0" cx="315.6" cy="730.5" r="3.6"/>
<circle class="st0" cx="207.4" cy="610.3" r="3.6"/>
<circle class="st0" cx="279" cy="500.5" r="3.6"/>
<circle class="st0" cx="104.7" cy="610.3" r="3.6"/>
<circle class="st0" cx="326" cy="553" r="3.6"/>
<circle class="st0" cx="489.1" cy="480.6" r="3.6"/>
<circle class="st0" cx="377.7" cy="531.6" r="3.6"/>
<circle class="st0" cx="259.9" cy="445.6" r="3.6"/>
<circle class="st0" cx="167.6" cy="473.5" r="3.6"/>
<circle class="st0" cx="353.8" cy="493.4" r="3.6"/>
<circle class="st0" cx="252.7" cy="621.5" r="3.6"/>
<circle class="st0" cx="236" cy="659.7" r="3.6"/>
<circle class="st0" cx="372.1" cy="692.3" r="3.6"/>
<circle class="st0" cx="167.6" cy="602.4" r="3.6"/>
<circle class="st0" cx="146.9" cy="723.3" r="3.6"/>
<circle class="st0" cx="271" cy="730.5" r="3.6"/>
<circle class="st0" cx="137.3" cy="659.7" r="3.6"/>
<circle class="st0" cx="146.9" cy="757.6" r="3.6"/>
<circle class="st0" cx="116.7" cy="917.5" r="3.6"/>
<circle class="st0" cx="118.2" cy="804.5" r="3.6"/>
<circle class="st0" cx="189.9" cy="694.7" r="3.6"/>
<circle class="st0" cx="71.3" cy="727.3" r="3.6"/>
<circle class="st0" cx="150.9" cy="690.7" r="3.6"/>
<circle class="st0" cx="170.8" cy="639.8" r="3.6"/>
<circle class="st0" cx="78.5" cy="667.6" r="3.6"/>
<circle class="st0" cx="163.6" cy="815.7" r="3.6"/>
<circle class="st0" cx="146.9" cy="853.9" r="3.6"/>
<circle class="st0" cx="78.5" cy="796.6" r="3.6"/>
<circle class="st0" cx="57.8" cy="917.5" r="3.6"/>
<circle class="st0" cx="198.6" cy="937.4" r="3.6"/>
<circle class="st0" cx="48.2" cy="853.9" r="3.6"/>
<circle class="st0" cx="153.3" cy="1390.3" r="3.6"/>
<circle class="st0" cx="286.2" cy="1419.7" r="3.6"/>
<circle class="st0" cx="235.2" cy="1372.7" r="3.6"/>
<circle class="st0" cx="314.8" cy="1436.4" r="3.6"/>
<circle class="st0" cx="231.3" cy="1348.1" r="3.6"/>
<circle class="st0" cx="246.4" cy="1282.8" r="3.6"/>
<circle class="st0" cx="246.4" cy="1411.7" r="3.6"/>
<circle class="st0" cx="216.1" cy="1469" r="3.6"/>
<circle class="st0" cx="170.8" cy="1515.2" r="3.6"/>
<circle class="st0" cx="272.6" cy="1292.4" r="3.6"/>
<circle class="st0" cx="25.9" cy="1392.6" r="3.6"/>
<circle class="st0" cx="244" cy="1339.3" r="3.6"/>
<circle class="st0" cx="197" cy="1262.1" r="3.6"/>
<circle class="st0" cx="276.6" cy="1225.5" r="3.6"/>
<circle class="st0" cx="284.6" cy="1282" r="3.6"/>
<circle class="st0" cx="212.2" cy="1258.9" r="3.6"/>
<circle class="st0" cx="238.4" cy="1268.5" r="3.6"/>
<circle class="st0" cx="209.8" cy="1315.4" r="3.6"/>
<circle class="st0" cx="281.4" cy="1205.6" r="3.6"/>
<circle class="st0" cx="242.4" cy="1201.6" r="3.6"/>
<circle class="st0" cx="262.3" cy="1150.7" r="3.6"/>
<circle class="st0" cx="294.1" cy="1329" r="3.6"/>
<circle class="st0" cx="248" cy="1315.4" r="3.6"/>
<circle class="st0" cx="290.9" cy="1252.6" r="3.6"/>
<circle class="st0" cx="251.9" cy="1248.6" r="3.6"/>
<circle class="st0" cx="271.8" cy="1197.7" r="3.6"/>
<circle class="st0" cx="259.9" cy="1305.1" r="3.6"/>
<circle class="st0" cx="279.8" cy="1254.2" r="3.6"/>
<circle class="st0" cx="263.1" cy="1262.9" r="3.6"/>
<circle class="st0" cx="256.7" cy="1228.7" r="3.6"/>
<circle class="st0" cx="237.6" cy="1173.8" r="3.6"/>
<circle class="st0" cx="204.2" cy="1202.4" r="3.6"/>
<circle class="st0" cx="289.3" cy="1350.5" r="3.6"/>
<circle class="st0" cx="272.6" cy="1388.7" r="3.6"/>
<circle class="st0" cx="259.9" cy="1360" r="3.6"/>
<circle class="st0" cx="187.5" cy="1345.7" r="3.6"/>
<circle class="st0" cx="204.2" cy="1331.4" r="3.6"/>
<circle class="st0" cx="174" cy="1388.7" r="3.6"/>
<circle class="st0" cx="158.8" cy="1375.1" r="3.6"/>
<circle class="st0" cx="125.4" cy="1440.4" r="3.6"/>
<circle class="st0" cx="144.5" cy="1326.6" r="3.6"/>
<circle class="st0" cx="118.2" cy="1392.6" r="3.6"/>
<circle class="st0" cx="193.1" cy="1386.3" r="3.6"/>
<circle class="st0" cx="209.1" cy="854" r="3.6"/>
<circle class="st0" cx="197.8" cy="1017" r="3.6"/>
<circle class="st0" cx="199.4" cy="904" r="3.6"/>
<circle class="st0" cx="221.7" cy="943" r="3.6"/>
<circle class="st0" cx="239.8" cy="936.1" r="3.6"/>
<circle class="st0" cx="228.1" cy="953.3" r="3.6"/>
<circle class="st0" cx="159.6" cy="896" r="3.6"/>
<circle class="st0" cx="189.9" cy="953.3" r="3.6"/>
<circle class="st0" cx="286.2" cy="1026.6" r="3.6"/>
<circle class="st0" cx="129.4" cy="953.3" r="3.6"/>
<circle class="st0" cx="138.9" cy="1051.2" r="3.6"/>
<circle class="st0" cx="108.7" cy="1211.2" r="3.6"/>
<circle class="st0" cx="110.3" cy="1098.2" r="3.6"/>
<circle class="st0" cx="181.9" cy="988.4" r="3.6"/>
<circle class="st0" cx="63.3" cy="1021" r="3.6"/>
<circle class="st0" cx="45.8" cy="1486.6" r="3.6"/>
<circle class="st0" cx="162.8" cy="933.4" r="3.6"/>
<circle class="st0" cx="70.5" cy="961.3" r="3.6"/>
<circle class="st0" cx="155.6" cy="1109.3" r="3.6"/>
<circle class="st0" cx="89.6" cy="1322.6" r="3.6"/>
<circle class="st0" cx="70.5" cy="1090.2" r="3.6"/>
<circle class="st0" cx="49.8" cy="1211.2" r="3.6"/>
<circle class="st0" cx="174" cy="1218.4" r="3.6"/>
<circle class="st0" cx="295.7" cy="1503.3" r="3.6"/>
<circle class="st0" cx="267.1" cy="1550.2" r="3.6"/>
<circle class="st0" cx="216.1" cy="1503.3" r="3.6"/>
<circle class="st0" cx="385.6" cy="1492.9" r="3.6"/>
<circle class="st0" cx="312.4" cy="1561.4" r="3.6"/>
<circle class="st0" cx="286.2" cy="1618.7" r="3.6"/>
<circle class="st0" cx="227.3" cy="1542.3" r="3.6"/>
<circle class="st0" cx="197" cy="1599.6" r="3.6"/>
<circle class="st0" cx="378.5" cy="1585.2" r="3.6"/>
<circle class="st0" cx="404.7" cy="1543.1" r="3.6"/>
<circle class="st0" cx="330.7" cy="1615.5" r="3.6"/>
<circle class="st0" cx="270.2" cy="1481" r="3.6"/>
<circle class="st0" cx="367.2" cy="1521" r="3.6"/>
<circle class="st0" cx="464.3" cy="1521.4" r="3.6"/>
<circle class="st0" cx="331.4" cy="1534.9" r="3.6"/>
<circle class="st0" cx="361.6" cy="1493.5" r="3.6"/>
<circle class="st0" cx="356.5" cy="1511.4" r="3.6"/>
<circle class="st0" cx="465.4" cy="1595.7" r="3.6"/>
<circle class="st0" cx="312.3" cy="1517.4" r="3.6"/>
<circle class="st0" cx="288.4" cy="1530.9" r="3.6"/>
<circle class="st0" cx="377.4" cy="1444.3" r="3.6"/>
<circle class="st0" cx="309.1" cy="1476.8" r="3.6"/>
<circle class="st0" cx="309.1" cy="1444.2" r="3.6"/>
<circle class="st0" cx="367.2" cy="1466.1" r="3.6"/>
<circle class="st0" cx="335.4" cy="1462.5" r="3.6"/>
<circle class="st0" cx="335.4" cy="1484" r="3.6"/>
<circle class="st0" cx="291.6" cy="1480.8" r="3.6"/>
<circle class="st0" cx="497.7" cy="1530.1" r="3.6"/>
<circle class="st0" cx="510.5" cy="1402" r="3.6"/>
<circle class="st0" cx="357.7" cy="1480.8" r="3.6"/>
<circle class="st0" cx="342.5" cy="1474.4" r="3.6"/>
<circle class="st0" cx="331.4" cy="1514.2" r="3.6"/>
<circle class="st0" cx="403" cy="1404.4" r="3.6"/>
<circle class="st0" cx="450" cy="1456.9" r="3.6"/>
<circle class="st0" cx="364" cy="1400.4" r="3.6"/>
<circle class="st0" cx="501.7" cy="1435.4" r="3.6"/>
<circle class="st0" cx="291.6" cy="1377.3" r="3.6"/>
<circle class="st0" cx="477.8" cy="1397.2" r="3.6"/>
<circle class="st0" cx="376.8" cy="1525.4" r="3.6"/>
<circle class="st0" cx="533.5" cy="1495.1" r="3.6"/>
<circle class="st0" cx="293.2" cy="1515.8" r="3.6"/>
<circle class="st0" cx="442.8" cy="1549.2" r="3.6"/>
<circle class="st0" cx="469.1" cy="1507" r="3.6"/>
<circle class="st0" cx="317.9" cy="1386.9" r="3.6"/>
<circle class="st0" cx="289.2" cy="1433.8" r="3.6"/>
<circle class="st0" cx="261.4" cy="1426.7" r="3.6"/>
<circle class="st0" cx="407.8" cy="1376.5" r="3.6"/>
<circle class="st0" cx="368.8" cy="1380.5" r="3.6"/>
<circle class="st0" cx="329.8" cy="1376.5" r="3.6"/>
<circle class="st0" cx="283.6" cy="1363" r="3.6"/>
<circle class="st0" cx="319.4" cy="1413.5" r="3.6"/>
<circle class="st0" cx="359.3" cy="1372.6" r="3.6"/>
<circle class="st0" cx="293.2" cy="1410" r="3.6"/>
<circle class="st0" cx="344.1" cy="1403.6" r="3.6"/>
<circle class="st0" cx="305.1" cy="1399.6" r="3.6"/>
<circle class="st0" cx="348.9" cy="1375.7" r="3.6"/>
<circle class="st0" cx="224.6" cy="1461" r="3.6"/>
<circle class="st0" cx="317.9" cy="1483.2" r="3.6"/>
<circle class="st0" cx="411" cy="1480" r="3.6"/>
<circle class="st0" cx="426.9" cy="1426.7" r="3.6"/>
<circle class="st0" cx="281.3" cy="1467.3" r="3.6"/>
<circle class="st0" cx="414.2" cy="1496.7" r="3.6"/>
<circle class="st0" cx="363.2" cy="1449.7" r="3.6"/>
<circle class="st0" cx="442.8" cy="1513.4" r="3.6"/>
<circle class="st0" cx="359.3" cy="1425.1" r="3.6"/>
<circle class="st0" cx="374.4" cy="1359.8" r="3.6"/>
<circle class="st0" cx="374.4" cy="1488.7" r="3.6"/>
<circle class="st0" cx="344.1" cy="1546" r="3.6"/>
<circle class="st0" cx="400.6" cy="1369.4" r="3.6"/>
<circle class="st0" cx="372" cy="1416.3" r="3.6"/>
<circle class="st0" cx="325" cy="1339.1" r="3.6"/>
<circle class="st0" cx="412.6" cy="1359" r="3.6"/>
<circle class="st0" cx="340.2" cy="1335.9" r="3.6"/>
<circle class="st0" cx="366.4" cy="1345.5" r="3.6"/>
<circle class="st0" cx="337.8" cy="1392.4" r="3.6"/>
<circle class="st0" cx="422.1" cy="1406" r="3.6"/>
<circle class="st0" cx="376" cy="1392.4" r="3.6"/>
<circle class="st0" cx="387.9" cy="1382.1" r="3.6"/>
<circle class="st0" cx="407.8" cy="1331.2" r="3.6"/>
<circle class="st0" cx="53.8" cy="1587.2" r="3.6"/>
<circle class="st0" cx="391.1" cy="1339.9" r="3.6"/>
<circle class="st0" cx="417.3" cy="1427.5" r="3.6"/>
<circle class="st0" cx="428.6" cy="1462.7" r="3.6"/>
<circle class="st0" cx="387.9" cy="1437" r="3.6"/>
<circle class="st0" cx="315.5" cy="1422.7" r="3.6"/>
<circle class="st0" cx="332.2" cy="1408.4" r="3.6"/>
<circle class="st0" cx="302" cy="1465.7" r="3.6"/>
<circle class="st0" cx="286.8" cy="1452.1" r="3.6"/>
<circle class="st0" cx="253.4" cy="1517.4" r="3.6"/>
<circle class="st0" cx="272.5" cy="1403.6" r="3.6"/>
<circle class="st0" cx="246.2" cy="1469.6" r="3.6"/>
<circle class="st0" cx="321.1" cy="1463.3" r="3.6"/>
<circle class="st0" cx="241.6" cy="1491.6" r="3.6"/>
<circle class="st0" cx="398.2" cy="1558" r="3.6"/>
<circle class="st0" cx="253.5" cy="1519.2" r="3.6"/>
<circle class="st0" cx="154.9" cy="1519.2" r="3.6"/>
<circle class="st0" cx="336.3" cy="1504.9" r="3.6"/>
<circle class="st0" cx="254.3" cy="1629.8" r="3.6"/>
<circle class="st0" cx="215.3" cy="1625.8" r="3.6"/>
<circle class="st0" cx="235.2" cy="1574.9" r="3.6"/>
<circle class="st0" cx="331.5" cy="1630.6" r="3.6"/>
<circle class="st0" cx="210.6" cy="1598" r="3.6"/>
<circle class="st0" cx="177.1" cy="1626.6" r="3.6"/>
<circle class="st0" cx="146.9" cy="1642.5" r="3.6"/>
<circle class="st0" cx="40.3" cy="1147.5" r="3.6"/>
<circle class="st0" cx="318.8" cy="645.4" r="3.6"/>
<circle class="st0" cx="345.1" cy="603.2" r="3.6"/>
<circle class="st0" cx="488.3" cy="719.4" r="3.6"/>
<circle class="st0" cx="458.1" cy="879.3" r="3.6"/>
<circle class="st0" cx="578.2" cy="1279.6" r="3.6"/>
<circle class="st0" cx="459.7" cy="766.3" r="3.6"/>
<circle class="st0" cx="531.3" cy="656.5" r="3.6"/>
<circle class="st0" cx="412.7" cy="689.1" r="3.6"/>
<circle class="st0" cx="578.2" cy="709" r="3.6"/>
<circle class="st0" cx="492.3" cy="652.5" r="3.6"/>
<circle class="st0" cx="574.3" cy="452.8" r="3.6"/>
<circle class="st0" cx="512.2" cy="601.6" r="3.6"/>
<circle class="st0" cx="419.9" cy="629.4" r="3.6"/>
<circle class="st0" cx="113.5" cy="467.1" r="3.6"/>
<circle class="st0" cx="15.6" cy="665.3" r="3.6"/>
<circle class="st0" cx="156.4" cy="404.2" r="3.6"/>
<circle class="st0" cx="37.9" cy="436.8" r="3.6"/>
<circle class="st0" cx="419.9" cy="360.4" r="3.6"/>
<circle class="st0" cx="117.4" cy="400.2" r="3.6"/>
<circle class="st0" cx="458.9" cy="400.2" r="3.6"/>
<circle class="st0" cx="137.3" cy="349.3" r="3.6"/>
<circle class="st0" cx="45" cy="377.2" r="3.6"/>
<circle class="st0" cx="231.3" cy="397.1" r="3.6"/>
<circle class="st0" cx="564.7" cy="377.2" r="3.6"/>
<circle class="st0" cx="45" cy="506.1" r="3.6"/>
<circle class="st0" cx="48.2" cy="543.5" r="3.6"/>
<circle class="st0" cx="196.2" cy="549.1" r="3.6"/>
<circle class="st0" cx="222.5" cy="506.9" r="3.6"/>
<circle class="st0" cx="297.3" cy="533.1" r="3.6"/>
<circle class="st0" cx="575.1" cy="648.5" r="3.6"/>
<circle class="st0" cx="505" cy="777.5" r="3.6"/>
<circle class="st0" cx="488.3" cy="815.7" r="3.6"/>
<circle class="st0" cx="581.4" cy="849.9" r="3.6"/>
<circle class="st0" cx="419.9" cy="758.4" r="3.6"/>
<circle class="st0" cx="399.2" cy="879.3" r="3.6"/>
<circle class="st0" cx="523.3" cy="886.5" r="3.6"/>
<circle class="st0" cx="389.6" cy="815.7" r="3.6"/>
<circle class="st0" cx="339.8" cy="906.1" r="3.6"/>
<circle class="st0" cx="237.1" cy="817.7" r="3.6"/>
<circle class="st0" cx="311.1" cy="953" r="3.6"/>
<circle class="st0" cx="382.7" cy="843.2" r="3.6"/>
<circle class="st0" cx="260.2" cy="906.1" r="3.6"/>
<circle class="st0" cx="429.7" cy="895.7" r="3.6"/>
<circle class="st0" cx="343.8" cy="839.2" r="3.6"/>
<circle class="st0" cx="363.6" cy="788.3" r="3.6"/>
<circle class="st0" cx="271.3" cy="816.2" r="3.6"/>
<circle class="st0" cx="356.5" cy="964.2" r="3.6"/>
<circle class="st0" cx="339.8" cy="1002.4" r="3.6"/>
<circle class="st0" cx="271.3" cy="945.1" r="3.6"/>
<circle class="st0" cx="228.1" cy="1012.4" r="3.6"/>
<circle class="st0" cx="422.5" cy="988.1" r="3.6"/>
<circle class="st0" cx="297.6" cy="825.7" r="3.6"/>
<circle class="st0" cx="268.9" cy="872.7" r="3.6"/>
<circle class="st0" cx="340.6" cy="762.8" r="3.6"/>
<circle class="st0" cx="222" cy="795.5" r="3.6"/>
<circle class="st0" cx="387.5" cy="815.4" r="3.6"/>
<circle class="st0" cx="301.6" cy="758.9" r="3.6"/>
<circle class="st0" cx="321.5" cy="707.9" r="3.6"/>
<circle class="st0" cx="287.2" cy="875" r="3.6"/>
<circle class="st0" cx="348.5" cy="819.3" r="3.6"/>
<circle class="st0" cx="309.5" cy="815.4" r="3.6"/>
<circle class="st0" cx="329.4" cy="764.4" r="3.6"/>
<circle class="st0" cx="237.1" cy="792.3" r="3.6"/>
<circle class="st0" cx="263.4" cy="801.8" r="3.6"/>
<circle class="st0" cx="234.7" cy="848.8" r="3.6"/>
<circle class="st0" cx="306.3" cy="739" r="3.6"/>
<circle class="st0" cx="353.3" cy="791.5" r="3.6"/>
<circle class="st0" cx="247.4" cy="719" r="3.6"/>
<circle class="st0" cx="287.2" cy="684" r="3.6"/>
<circle class="st0" cx="319.1" cy="862.3" r="3.6"/>
<circle class="st0" cx="265.8" cy="844" r="3.6"/>
<circle class="st0" cx="339" cy="811.4" r="3.6"/>
<circle class="st0" cx="288.9" cy="860.8" r="3.6"/>
<circle class="st0" cx="315.9" cy="785.9" r="3.6"/>
<circle class="st0" cx="276.9" cy="781.9" r="3.6"/>
<circle class="st0" cx="296.8" cy="731" r="3.6"/>
<circle class="st0" cx="323.9" cy="842.4" r="3.6"/>
<circle class="st0" cx="284.9" cy="838.4" r="3.6"/>
<circle class="st0" cx="261.8" cy="826.5" r="3.6"/>
<circle class="st0" cx="304.8" cy="787.5" r="3.6"/>
<circle class="st0" cx="281.7" cy="762" r="3.6"/>
<circle class="st0" cx="328.6" cy="814.6" r="3.6"/>
<circle class="st0" cx="262.6" cy="707.1" r="3.6"/>
<circle class="st0" cx="229.2" cy="735.8" r="3.6"/>
<circle class="st0" cx="398.4" cy="732.7" r="3.6"/>
<circle class="st0" cx="314.3" cy="883.8" r="3.6"/>
<circle class="st0" cx="297.6" cy="922" r="3.6"/>
<circle class="st0" cx="229.2" cy="864.7" r="3.6"/>
<circle class="st0" cx="380.4" cy="907.7" r="3.6"/>
<circle class="st0" cx="406.6" cy="865.5" r="3.6"/>
<circle class="st0" cx="279.3" cy="977.7" r="3.6"/>
<circle class="st0" cx="254.6" cy="1000.8" r="3.6"/>
<circle class="st0" cx="245.1" cy="684" r="3.6"/>
<circle class="st0" cx="238.7" cy="770" r="3.6"/>
<circle class="st0" cx="261.8" cy="742.1" r="3.6"/>
<circle class="st0" cx="245.1" cy="780.3" r="3.6"/>
<circle class="st0" cx="303.2" cy="853.6" r="3.6"/>
<circle class="st0" cx="549.5" cy="258.5" r="3.6"/>
<circle class="st0" cx="461.1" cy="361.2" r="3.6"/>
<circle class="st0" cx="549.5" cy="338.1" r="3.6"/>
<circle class="st0" cx="482.6" cy="254.5" r="3.6"/>
<circle class="st0" cx="459.6" cy="326.9" r="3.6"/>
<circle class="st0" cx="469.1" cy="300.7" r="3.6"/>
<circle class="st0" cx="516.1" cy="329.3" r="3.6"/>
<circle class="st0" cx="406.2" cy="257.7" r="3.6"/>
<circle class="st0" cx="438.9" cy="376.3" r="3.6"/>
<circle class="st0" cx="402.3" cy="296.7" r="3.6"/>
<circle class="st0" cx="351.3" cy="276.8" r="3.6"/>
<circle class="st0" cx="518.4" cy="311" r="3.6"/>
<circle class="st0" cx="462.7" cy="249.7" r="3.6"/>
<circle class="st0" cx="458.8" cy="288.7" r="3.6"/>
<circle class="st0" cx="407.8" cy="268.8" r="3.6"/>
<circle class="st0" cx="435.7" cy="361.2" r="3.6"/>
<circle class="st0" cx="445.2" cy="334.9" r="3.6"/>
<circle class="st0" cx="492.2" cy="363.5" r="3.6"/>
<circle class="st0" cx="382.4" cy="291.9" r="3.6"/>
<circle class="st0" cx="434.9" cy="245" r="3.6"/>
<circle class="st0" cx="387.4" cy="339.9" r="3.6"/>
<circle class="st0" cx="327.4" cy="311" r="3.6"/>
<circle class="st0" cx="505.7" cy="279.2" r="3.6"/>
<circle class="st0" cx="487.4" cy="332.5" r="3.6"/>
<circle class="st0" cx="454.8" cy="259.3" r="3.6"/>
<circle class="st0" cx="599.2" cy="298.3" r="3.6"/>
<circle class="st0" cx="429.3" cy="282.4" r="3.6"/>
<circle class="st0" cx="425.3" cy="321.4" r="3.6"/>
<circle class="st0" cx="374.4" cy="301.5" r="3.6"/>
<circle class="st0" cx="485.8" cy="274.4" r="3.6"/>
<circle class="st0" cx="481.8" cy="313.4" r="3.6"/>
<circle class="st0" cx="469.9" cy="336.5" r="3.6"/>
<circle class="st0" cx="430.9" cy="293.5" r="3.6"/>
<circle class="st0" cx="405.4" cy="316.6" r="3.6"/>
<circle class="st0" cx="458" cy="269.6" r="3.6"/>
<circle class="st0" cx="350.5" cy="335.7" r="3.6"/>
<circle class="st0" cx="379.2" cy="369.1" r="3.6"/>
<circle class="st0" cx="527.2" cy="284" r="3.6"/>
<circle class="st0" cx="508.1" cy="369.1" r="3.6"/>
<circle class="st0" cx="407.8" cy="382.6" r="3.6"/>
<circle class="st0" cx="324.4" cy="372.2" r="3.6"/>
<circle class="st0" cx="487.4" cy="383.4" r="3.6"/>
<circle class="st0" cx="374.4" cy="381.8" r="3.6"/>
<circle class="st0" cx="411.4" cy="463.6" r="3.6"/>
<circle class="st0" cx="406.5" cy="341.5" r="3.6"/>
<circle class="st0" cx="423.7" cy="353.2" r="3.6"/>
<circle class="st0" cx="423.7" cy="391.4" r="3.6"/>
<circle class="st0" cx="497" cy="295.1" r="3.6"/>
<circle class="st0" cx="458.8" cy="399.4" r="3.6"/>
<circle class="st0" cx="376.5" cy="241.5" r="3.6"/>
<circle class="st0" cx="288.1" cy="344.2" r="3.6"/>
<circle class="st0" cx="423.4" cy="270.1" r="3.6"/>
<circle class="st0" cx="376.5" cy="321.1" r="3.6"/>
<circle class="st0" cx="309.6" cy="237.5" r="3.6"/>
<circle class="st0" cx="286.6" cy="309.9" r="3.6"/>
<circle class="st0" cx="472.8" cy="241.5" r="3.6"/>
<circle class="st0" cx="415.5" cy="309.9" r="3.6"/>
<circle class="st0" cx="482.8" cy="353.2" r="3.6"/>
<circle class="st0" cx="296.1" cy="283.7" r="3.6"/>
<circle class="st0" cx="343.1" cy="312.3" r="3.6"/>
<circle class="st0" cx="233.2" cy="240.7" r="3.6"/>
<circle class="st0" cx="265.9" cy="359.3" r="3.6"/>
<circle class="st0" cx="229.3" cy="279.7" r="3.6"/>
<circle class="st0" cx="345.4" cy="294" r="3.6"/>
<circle class="st0" cx="285.8" cy="271.7" r="3.6"/>
<circle class="st0" cx="234.8" cy="251.8" r="3.6"/>
<circle class="st0" cx="262.7" cy="344.2" r="3.6"/>
<circle class="st0" cx="272.2" cy="317.9" r="3.6"/>
<circle class="st0" cx="319.2" cy="346.5" r="3.6"/>
<circle class="st0" cx="209.4" cy="274.9" r="3.6"/>
<circle class="st0" cx="332.7" cy="262.2" r="3.6"/>
<circle class="st0" cx="314.4" cy="315.5" r="3.6"/>
<circle class="st0" cx="281.8" cy="242.3" r="3.6"/>
<circle class="st0" cx="331.2" cy="292.3" r="3.6"/>
<circle class="st0" cx="256.3" cy="265.4" r="3.6"/>
<circle class="st0" cx="252.3" cy="304.4" r="3.6"/>
<circle class="st0" cx="312.8" cy="257.4" r="3.6"/>
<circle class="st0" cx="308.8" cy="296.4" r="3.6"/>
<circle class="st0" cx="296.9" cy="319.5" r="3.6"/>
<circle class="st0" cx="257.9" cy="276.5" r="3.6"/>
<circle class="st0" cx="232.4" cy="299.6" r="3.6"/>
<circle class="st0" cx="285" cy="252.6" r="3.6"/>
<circle class="st0" cx="206.2" cy="352.1" r="3.6"/>
<circle class="st0" cx="354.2" cy="267" r="3.6"/>
<circle class="st0" cx="392.4" cy="283.7" r="3.6"/>
<circle class="st0" cx="335.1" cy="352.1" r="3.6"/>
<circle class="st0" cx="448.1" cy="302" r="3.6"/>
<circle class="st0" cx="471.2" cy="326.6" r="3.6"/>
<circle class="st0" cx="240.4" cy="342.6" r="3.6"/>
<circle class="st0" cx="212.5" cy="319.5" r="3.6"/>
<circle class="st0" cx="250.7" cy="336.2" r="3.6"/>
<circle class="st0" cx="324" cy="278.1" r="3.6"/>
<circle class="st0" cx="416.2" cy="706.3" r="3.6"/>
<circle class="st0" cx="406.6" cy="642.7" r="3.6"/>
<circle class="st0" cx="571.1" cy="801.3" r="3.6"/>
<circle class="st0" cx="567.9" cy="527.6" r="3.6"/>
<circle class="st0" cx="600.1" cy="513.6" r="3.6"/>
<circle class="st0" cx="599.3" cy="752.4" r="3.6"/>
<circle class="st0" cx="569.1" cy="912.3" r="3.6"/>
<circle class="st0" cx="570.7" cy="799.3" r="3.6"/>
<circle class="st0" cx="642.3" cy="689.5" r="3.6"/>
<circle class="st0" cx="523.7" cy="722.1" r="3.6"/>
<circle class="st0" cx="689.2" cy="742" r="3.6"/>
<circle class="st0" cx="603.3" cy="685.5" r="3.6"/>
<circle class="st0" cx="685.3" cy="485.8" r="3.6"/>
<circle class="st0" cx="623.2" cy="634.6" r="3.6"/>
<circle class="st0" cx="533.9" cy="612.4" r="3.6"/>
<circle class="st0" cx="530.9" cy="393.4" r="3.6"/>
<circle class="st0" cx="569.9" cy="433.2" r="3.6"/>
<circle class="st0" cx="675.7" cy="410.2" r="3.6"/>
<circle class="st0" cx="686.1" cy="681.5" r="3.6"/>
<circle class="st0" cx="616" cy="810.5" r="3.6"/>
<circle class="st0" cx="599.3" cy="848.7" r="3.6"/>
<circle class="st0" cx="692.4" cy="882.9" r="3.6"/>
<circle class="st0" cx="530.9" cy="791.4" r="3.6"/>
<circle class="st0" cx="634.3" cy="919.5" r="3.6"/>
<circle class="st0" cx="682.1" cy="834.3" r="3.6"/>
<circle class="st0" cx="678.9" cy="560.6" r="3.6"/>
<circle class="st0" cx="632.2" cy="414" r="3.6"/>
<circle class="st0" cx="628.3" cy="157.8" r="3.6"/>
<circle class="st0" cx="618.7" cy="82.2" r="3.6"/>
<circle class="st0" cx="629.1" cy="353.5" r="3.6"/>
<circle class="st0" cx="635.4" cy="554.9" r="3.6"/>
<circle class="st0" cx="603.5" cy="43.1" r="3.6"/>
<circle class="st0" cx="625.1" cy="506.3" r="3.6"/>
<circle class="st0" cx="621.9" cy="232.6" r="3.6"/>
<circle class="st0" cx="654.1" cy="218.6" r="3.6"/>
<circle class="st0" cx="653.3" cy="457.4" r="3.6"/>
<circle class="st0" cx="615.7" cy="545.3" r="3.6"/>
<circle class="st0" cx="696.3" cy="394.5" r="3.6"/>
<circle class="st0" cx="743.2" cy="447" r="3.6"/>
<circle class="st0" cx="657.3" cy="390.5" r="3.6"/>
<circle class="st0" cx="739.3" cy="190.8" r="3.6"/>
<circle class="st0" cx="677.2" cy="339.6" r="3.6"/>
<circle class="st0" cx="623.9" cy="138.2" r="3.6"/>
<circle class="st0" cx="729.7" cy="115.2" r="3.6"/>
<circle class="st0" cx="740.1" cy="386.5" r="3.6"/>
<circle class="st0" cx="670" cy="515.5" r="3.6"/>
<circle class="st0" cx="653.3" cy="553.7" r="3.6"/>
<circle class="st0" cx="746.4" cy="587.9" r="3.6"/>
<circle class="st0" cx="736.1" cy="539.3" r="3.6"/>
<circle class="st0" cx="732.9" cy="265.6" r="3.6"/>
<circle class="st0" cx="146.2" cy="128.4" r="3.6"/>
<circle class="st0" cx="385" cy="129.2" r="3.6"/>
<circle class="st0" cx="544.9" cy="159.5" r="3.6"/>
<circle class="st0" cx="431.9" cy="157.9" r="3.6"/>
<circle class="st0" cx="322.1" cy="86.2" r="3.6"/>
<circle class="st0" cx="354.7" cy="204.8" r="3.6"/>
<circle class="st0" cx="374.6" cy="39.3" r="3.6"/>
<circle class="st0" cx="318.1" cy="125.2" r="3.6"/>
<circle class="st0" cx="118.4" cy="43.3" r="3.6"/>
<circle class="st0" cx="267.2" cy="105.3" r="3.6"/>
<circle class="st0" cx="295" cy="197.7" r="3.6"/>
<circle class="st0" cx="26" cy="197.7" r="3.6"/>
<circle class="st0" cx="65.8" cy="158.7" r="3.6"/>
<circle class="st0" cx="42.8" cy="52.8" r="3.6"/>
<circle class="st0" cx="314.1" cy="42.5" r="3.6"/>
<circle class="st0" cx="443.1" cy="112.5" r="3.6"/>
<circle class="st0" cx="481.3" cy="129.2" r="3.6"/>
<circle class="st0" cx="515.5" cy="36.1" r="3.6"/>
<circle class="st0" cx="424" cy="197.7" r="3.6"/>
<circle class="st0" cx="552.1" cy="94.2" r="3.6"/>
<circle class="st0" cx="466.9" cy="46.5" r="3.6"/>
<circle class="st0" cx="193.2" cy="49.6" r="3.6"/>
<circle class="st0" cx="600.1" cy="1135.6" r="3.6"/>
<circle class="st0" cx="599.3" cy="1374.4" r="3.6"/>
<circle class="st0" cx="569.1" cy="1534.3" r="3.6"/>
<circle class="st0" cx="570.7" cy="1421.3" r="3.6"/>
<circle class="st0" cx="642.3" cy="1311.5" r="3.6"/>
<circle class="st0" cx="689.2" cy="1364" r="3.6"/>
<circle class="st0" cx="603.3" cy="1307.5" r="3.6"/>
<circle class="st0" cx="685.3" cy="1107.8" r="3.6"/>
<circle class="st0" cx="623.2" cy="1256.6" r="3.6"/>
<circle class="st0" cx="569.9" cy="1055.2" r="3.6"/>
<circle class="st0" cx="675.7" cy="1032.2" r="3.6"/>
<circle class="st0" cx="686.1" cy="1303.5" r="3.6"/>
<circle class="st0" cx="616" cy="1432.5" r="3.6"/>
<circle class="st0" cx="599.3" cy="1470.7" r="3.6"/>
<circle class="st0" cx="692.4" cy="1504.9" r="3.6"/>
<circle class="st0" cx="634.3" cy="1541.5" r="3.6"/>
<circle class="st0" cx="682.1" cy="1456.3" r="3.6"/>
<circle class="st0" cx="678.9" cy="1182.6" r="3.6"/>
</svg>
